<?xml version="1.0" encoding="iso-8859-1"?>
<!-- Generator: Adobe Illustrator 19.0.0, SVG Export Plug-In . SVG Version: 6.00 Build 0)  -->
<!-- License: CC0. Made by SVG Repo: https://www.svgrepo.com/svg/258869/responsive -->
<svg version="1.1" id="Layer_1" xmlns="http://www.w3.org/2000/svg" xmlns:xlink="http://www.w3.org/1999/xlink" x="0px" y="0px"
	 viewBox="0 0 512 512" style="enable-background:new 0 0 512 512;" xml:space="preserve">
<path style="fill:#47CEAC;" d="M512,256.006C512,397.402,397.394,512.004,256.004,512C114.606,512.004,0,397.402,0,256.006
	C-0.007,114.61,114.606,0,256.004,0C397.394,0,512,114.614,512,256.006z"/>
<path style="fill:#36BB9A;" d="M512,256.005c0-7.786-0.406-15.474-1.086-23.084c-0.203-0.199-130.624-130.672-131.181-131.18
	c-5.232-5.575-12.639-9.193-20.785-9.193H135.833c-15.29,0-27.733,12.425-27.733,27.698v271.505c0,8.039,3.504,15.227,9.001,20.29
	c0.512,0.555,94.99,95.034,95.545,95.546c0.268,0.289,0.555,0.555,0.832,0.831c13.839,2.315,28.032,3.581,42.528,3.581
	C397.394,512.004,512,397.401,512,256.005z"/>
<path style="fill:#F6F6F6;" d="M387.316,174.322c0-0.017,0.01-0.03,0.01-0.047v-54.028c0-15.014-12.995-27.697-28.379-27.697
	H135.833c-15.291,0-27.733,12.423-27.733,27.697v271.505c0,15.274,12.444,27.697,27.733,27.697h149.337
	c0.863,0,1.671-0.198,2.431-0.491c1.582,0.281,3.19,0.491,4.852,0.491h94.401c15.283,0,27.714-12.43,27.714-27.711V201.986
	C414.568,186.863,402.382,174.576,387.316,174.322z M353.274,174.275h-60.821c-15.283,0-27.714,12.43-27.714,27.711v169.791H142.151
	V133.412h211.122V174.275z M278.359,221.948h122.588v136.208H278.359V221.948z M400.947,201.986v6.341H278.359v-6.341
	c0-7.769,6.325-14.09,14.093-14.09h94.401C394.622,187.895,400.947,194.218,400.947,201.986z M121.719,391.753V120.247
	c0-7.761,6.332-14.077,14.113-14.077h223.114c8.001,0,14.758,6.445,14.758,14.077v54.028h-6.811v-47.673
	c0-3.761-3.046-6.811-6.811-6.811H135.341c-3.764,0-6.811,3.05-6.811,6.811v251.985c0,3.761,3.046,6.811,6.811,6.811h129.397v6.341
	c0,5.165,1.511,9.947,3.982,14.09H135.833C128.051,405.829,121.719,399.514,121.719,391.753z M386.853,405.829h-94.401
	c-7.769,0-14.093-6.321-14.093-14.09v-19.963h122.588v19.963C400.947,399.507,394.622,405.829,386.853,405.829z"/>
</svg>
